<svg width="112" height="88" viewBox="0 0 112 88" fill="none" xmlns="http://www.w3.org/2000/svg">
<path d="M3.92273 73.6155V76.9204H10.2959V80.6887H3.92273V86.9795H0V69.8472H10.4091V73.6155H3.92273Z" fill="white"/>
<path d="M24.1954 74.748V86.9899H20.5198V85.8367C19.8608 86.7428 18.6356 87.3296 17.0192 87.3296C14.5482 87.3296 12.4375 85.569 12.4375 82.264V74.748H16.1131V81.7287C16.1131 83.2421 17.0707 83.9526 18.2444 83.9526C19.5931 83.9526 20.5198 83.1701 20.5198 81.4301V74.748H24.1954Z" fill="white"/>
<path d="M31.5459 78.2691V82.6037C31.5459 83.6538 32.452 83.7568 34.0684 83.6539V86.9897C29.2705 87.4839 27.8703 86.0322 27.8703 82.6037V78.2691H25.9141V74.7376H27.8703V72.4107L31.5459 71.3091V74.7376H34.0684V78.2691H31.5459Z" fill="white"/>
<path d="M47.9786 74.748V86.9899H44.303V85.8367C43.644 86.7428 42.4188 87.3296 40.8024 87.3296C38.3314 87.3296 36.2207 85.569 36.2207 82.264V74.748H39.8963V81.7287C39.8963 83.2421 40.8539 83.9526 42.0276 83.9526C43.3763 83.9526 44.303 83.1701 44.303 81.4301V74.748H47.9786Z" fill="white"/>
<path d="M58.027 74.501V78.6605C56.5135 78.4134 54.3514 79.0312 54.3514 81.4507V86.9899H50.6758V74.7481H54.3514V76.9308C54.8353 75.2835 56.4827 74.501 58.027 74.501Z" fill="white"/>
<path d="M65.5948 84.0452C66.6038 84.0452 67.4584 83.6539 67.9423 83.1186L70.8766 84.8071C69.672 86.475 67.8599 87.3296 65.533 87.3296C61.3426 87.3296 58.748 84.5085 58.748 80.8638C58.748 77.219 61.3941 74.3979 65.2653 74.3979C68.838 74.3979 71.4841 77.1675 71.4841 80.8638C71.4841 81.3786 71.4326 81.8728 71.3399 82.3361H62.6399C63.1135 83.6128 64.2461 84.0452 65.5948 84.0452ZM67.8393 79.5974C67.4481 78.1765 66.3464 77.6617 65.2448 77.6617C63.8445 77.6617 62.9179 78.3516 62.5781 79.5974H67.8393Z" fill="white"/>
<path d="M85.3321 79.4738V86.9898H81.6565V80.0092C81.6565 78.4957 80.699 77.7853 79.5252 77.7853C78.1765 77.7853 77.2499 78.5678 77.2499 80.3078V86.9898H73.5742V74.748H77.2499V75.9012C77.9088 74.9951 79.134 74.4082 80.7505 74.4082C83.2215 74.398 85.3321 76.1586 85.3321 79.4738Z" fill="white"/>
<path d="M97.3596 83.3142C97.3596 86.1353 94.9092 87.3296 92.2632 87.3296C89.8127 87.3296 87.9492 86.403 87.002 84.4159L90.1834 82.6038C90.5026 83.5304 91.1924 84.0452 92.2632 84.0452C93.1486 84.0452 93.581 83.7775 93.581 83.2833C93.581 81.9345 87.5579 82.645 87.5579 78.4133C87.5579 75.7467 89.8127 74.3979 92.3558 74.3979C94.3429 74.3979 96.1035 75.2834 97.1331 77.0234L94.0032 78.7119C93.6634 78.0736 93.1692 77.6309 92.3661 77.6309C91.7278 77.6309 91.3365 77.878 91.3365 78.3207C91.3365 79.7106 97.3596 78.784 97.3596 83.3142Z" fill="white"/>
<path d="M105.296 84.0452C106.305 84.0452 107.16 83.6539 107.643 83.1186L110.578 84.8071C109.373 86.475 107.561 87.3296 105.234 87.3296C101.044 87.3296 98.4492 84.5085 98.4492 80.8638C98.4492 77.219 101.095 74.3979 104.967 74.3979C108.539 74.3979 111.185 77.1675 111.185 80.8638C111.185 81.3786 111.134 81.8728 111.041 82.3361H102.341C102.815 83.6128 103.947 84.0452 105.296 84.0452ZM107.551 79.5974C107.16 78.1765 106.058 77.6617 104.956 77.6617C103.556 77.6617 102.629 78.3516 102.29 79.5974H107.551Z" fill="white"/>
<path d="M57.214 55.9581V41.1526C59.1188 40.4833 60.4881 38.6713 60.4881 36.5297C60.4881 33.8322 58.2951 31.6392 55.5976 31.6392C52.9001 31.6392 50.707 33.8322 50.707 36.5297C50.707 38.661 52.0764 40.4833 53.9914 41.1526V55.9581C52.0867 56.6273 50.707 58.4394 50.707 60.5809C50.707 63.2784 52.9001 65.4715 55.5976 65.4715C58.2951 65.4715 60.4881 63.2784 60.4881 60.5809C60.4881 58.4497 59.1188 56.6273 57.214 55.9581ZM53.9296 36.5297C53.9296 35.6134 54.6812 34.8618 55.5976 34.8618C56.5139 34.8618 57.2655 35.6134 57.2655 36.5297C57.2655 37.446 56.5139 38.1976 55.5976 38.1976C54.6812 38.1976 53.9296 37.4563 53.9296 36.5297ZM55.5976 62.2488C54.6812 62.2488 53.9296 61.4972 53.9296 60.5809C53.9296 59.6646 54.6812 58.913 55.5976 58.913C56.5139 58.913 57.2655 59.6646 57.2655 60.5809C57.2655 61.4972 56.5139 62.2488 55.5976 62.2488Z" fill="white"/>
<path d="M71.4222 46.1771V27.7886C71.4222 22.7333 67.7569 18.512 62.9487 17.6472C64.8123 15.7733 65.9551 13.1993 65.9551 10.3577C65.9551 4.64345 61.3117 0 55.5975 0C49.8832 0 45.2398 4.64345 45.2398 10.3577C45.2398 13.1993 46.3929 15.7836 48.2462 17.6472C43.438 18.512 39.7727 22.7333 39.7727 27.7886V46.1771C37.8679 46.8463 36.4883 48.6584 36.4883 50.7896C36.4883 53.4871 38.6813 55.6802 41.3788 55.6802C44.0764 55.6802 46.2694 53.4871 46.2694 50.7896C46.2694 48.6584 44.9 46.836 42.9953 46.1771V27.7886C42.9953 23.8865 46.1664 20.7153 50.0686 20.7153H61.1058C65.0079 20.7153 68.179 23.8865 68.179 27.7886V46.1771C66.2743 46.8463 64.8946 48.6584 64.8946 50.7896C64.8946 53.4871 67.0877 55.6802 69.7852 55.6802C72.4827 55.6802 74.6757 53.4871 74.6757 50.7896C74.6963 48.6584 73.327 46.8463 71.4222 46.1771ZM43.0571 50.7896C43.0571 51.706 42.3055 52.4576 41.3891 52.4576C40.4728 52.4576 39.7212 51.706 39.7212 50.7896C39.7212 49.8733 40.4728 49.1217 41.3891 49.1217C42.3055 49.132 43.0571 49.8733 43.0571 50.7896ZM55.5975 17.4824C51.6644 17.4824 48.4727 14.2804 48.4727 10.3474C48.4727 6.41434 51.6747 3.22262 55.5975 3.22262C59.5305 3.22262 62.7325 6.42464 62.7325 10.3474C62.7325 14.2701 59.5305 17.4824 55.5975 17.4824ZM69.8058 52.4576C68.8894 52.4576 68.1378 51.706 68.1378 50.7896C68.1378 49.8733 68.8894 49.1217 69.8058 49.1217C70.7221 49.1217 71.4737 49.863 71.4737 50.7896C71.4737 51.7163 70.7221 52.4576 69.8058 52.4576Z" fill="white"/>
</svg>
