<svg width="5" height="1317" viewBox="0 0 5 1317" fill="none" xmlns="http://www.w3.org/2000/svg">
<path fill-rule="evenodd" clip-rule="evenodd" d="M1.22243e-05 1314.44C1.22378e-05 1315.85 1.1193 1317 2.50001 1317C3.88071 1317 5 1315.85 5 1314.44C5 1313.03 3.88071 1311.88 2.50001 1311.88C1.1193 1311.88 1.22109e-05 1313.03 1.22243e-05 1314.44ZM2.03126 1309.64L2.03126 1311.56L2.96875 1311.56L2.96875 1309.64L2.03126 1309.64ZM2.03126 1305.79L2.03126 1307.72L2.96875 1307.72L2.96875 1305.79L2.03126 1305.79ZM2.03126 1301.95L2.03126 1303.87L2.96875 1303.87L2.96875 1301.95L2.03126 1301.95ZM2.03126 1298.11L2.03126 1300.03L2.96875 1300.03L2.96875 1298.11L2.03126 1298.11ZM2.03126 1294.26L2.03126 1296.19L2.96875 1296.19L2.96875 1294.26L2.03126 1294.26ZM2.03126 1290.42L2.03126 1292.34L2.96875 1292.34L2.96875 1290.42L2.03126 1290.42ZM2.03126 1286.58L2.03126 1288.5L2.96875 1288.5L2.96875 1286.58L2.03126 1286.58ZM2.03126 1282.73L2.03126 1284.65L2.96875 1284.65L2.96875 1282.73L2.03126 1282.73ZM2.03126 1278.89L2.03126 1280.81L2.96875 1280.81L2.96875 1278.89L2.03126 1278.89ZM2.03126 1275.05L2.03126 1276.97L2.96875 1276.97L2.96875 1275.05L2.03126 1275.05ZM2.03126 1271.2L2.03126 1273.12L2.96875 1273.12L2.96875 1271.2L2.03126 1271.2ZM2.03126 1267.36L2.03126 1269.28L2.96875 1269.28L2.96875 1267.36L2.03126 1267.36ZM2.03126 1263.52L2.03126 1265.44L2.96875 1265.44L2.96875 1263.52L2.03126 1263.52ZM2.03126 1259.67L2.03126 1261.59L2.96875 1261.59L2.96875 1259.67L2.03126 1259.67ZM2.03126 1255.83L2.03126 1257.75L2.96875 1257.75L2.96875 1255.83L2.03126 1255.83ZM2.03126 1251.99L2.03126 1253.91L2.96875 1253.91L2.96875 1251.99L2.03126 1251.99ZM2.03126 1248.14L2.03126 1250.06L2.96875 1250.06L2.96875 1248.14L2.03126 1248.14ZM2.03126 1244.3L2.03126 1246.22L2.96875 1246.22L2.96875 1244.3L2.03126 1244.3ZM2.03126 1240.46L2.03126 1242.38L2.96875 1242.38L2.96875 1240.46L2.03126 1240.46ZM2.03126 1236.61L2.03126 1238.53L2.96875 1238.53L2.96875 1236.61L2.03126 1236.61ZM2.03126 1232.77L2.03126 1234.69L2.96875 1234.69L2.96875 1232.77L2.03126 1232.77ZM2.03126 1228.93L2.03126 1230.85L2.96875 1230.85L2.96875 1228.93L2.03126 1228.93ZM2.03126 1225.08L2.03126 1227L2.96875 1227L2.96875 1225.08L2.03126 1225.08ZM2.03126 1221.24L2.03126 1223.16L2.96875 1223.16L2.96875 1221.24L2.03126 1221.24ZM2.03126 1217.4L2.03126 1219.32L2.96875 1219.32L2.96875 1217.4L2.03126 1217.4ZM2.03126 1213.55L2.03126 1215.47L2.96875 1215.47L2.96875 1213.55L2.03126 1213.55ZM2.03126 1209.71L2.03126 1211.63L2.96875 1211.63L2.96875 1209.71L2.03126 1209.71ZM2.03126 1205.87L2.03126 1207.79L2.96875 1207.79L2.96875 1205.87L2.03126 1205.87ZM2.03126 1202.02L2.03126 1203.94L2.96875 1203.94L2.96875 1202.02L2.03126 1202.02ZM2.03126 1198.18L2.03126 1200.1L2.96875 1200.1L2.96875 1198.18L2.03126 1198.18ZM2.03126 1194.34L2.03126 1196.26L2.96875 1196.26L2.96875 1194.34L2.03126 1194.34ZM2.03126 1190.49L2.03126 1192.41L2.96875 1192.41L2.96875 1190.49L2.03126 1190.49ZM2.03126 1186.65L2.03126 1188.57L2.96875 1188.57L2.96875 1186.65L2.03126 1186.65ZM2.03126 1182.8L2.03126 1184.73L2.96875 1184.73L2.96875 1182.8L2.03126 1182.8ZM2.03126 1178.96L2.03126 1180.88L2.96875 1180.88L2.96875 1178.96L2.03126 1178.96ZM2.03126 1175.12L2.03126 1177.04L2.96875 1177.04L2.96875 1175.12L2.03126 1175.12ZM2.03126 1171.27L2.03126 1173.2L2.96875 1173.2L2.96875 1171.27L2.03126 1171.27ZM2.03126 1167.43L2.03126 1169.35L2.96875 1169.35L2.96875 1167.43L2.03126 1167.43ZM2.03126 1163.59L2.03126 1165.51L2.96875 1165.51L2.96875 1163.59L2.03126 1163.59ZM2.03126 1159.74L2.03126 1161.67L2.96875 1161.67L2.96875 1159.74L2.03126 1159.74ZM2.03126 1155.9L2.03126 1157.82L2.96875 1157.82L2.96875 1155.9L2.03126 1155.9ZM2.03126 1152.06L2.03126 1153.98L2.96875 1153.98L2.96875 1152.06L2.03126 1152.06ZM2.03126 1148.21L2.03126 1150.14L2.96875 1150.14L2.96875 1148.21L2.03126 1148.21ZM2.03126 1144.37L2.03126 1146.29L2.96875 1146.29L2.96875 1144.37L2.03126 1144.37ZM2.03126 1140.53L2.03126 1142.45L2.96875 1142.45L2.96875 1140.53L2.03126 1140.53ZM2.03126 1136.68L2.03126 1138.61L2.96875 1138.61L2.96875 1136.68L2.03126 1136.68ZM2.03126 1132.84L2.03126 1134.76L2.96875 1134.76L2.96875 1132.84L2.03126 1132.84ZM2.03126 1129L2.03126 1130.92L2.96875 1130.92L2.96875 1129L2.03126 1129ZM2.03126 1125.15L2.03126 1127.08L2.96875 1127.08L2.96875 1125.15L2.03126 1125.15ZM2.03126 1121.31L2.03126 1123.23L2.96875 1123.23L2.96875 1121.31L2.03126 1121.31ZM2.03126 1117.47L2.03126 1119.39L2.96875 1119.39L2.96875 1117.47L2.03126 1117.47ZM2.03126 1113.62L2.03126 1115.55L2.96875 1115.55L2.96875 1113.62L2.03126 1113.62ZM2.03126 1109.78L2.03126 1111.7L2.96875 1111.7L2.96875 1109.78L2.03126 1109.78ZM2.03126 1105.94L2.03126 1107.86L2.96875 1107.86L2.96875 1105.94L2.03126 1105.94ZM2.03126 1102.09L2.03126 1104.02L2.96875 1104.02L2.96875 1102.09L2.03126 1102.09ZM2.03126 1098.25L2.03126 1100.17L2.96875 1100.17L2.96875 1098.25L2.03126 1098.25ZM2.03126 1094.41L2.03126 1096.33L2.96875 1096.33L2.96875 1094.41L2.03126 1094.41ZM2.03126 1090.56L2.03126 1092.48L2.96875 1092.48L2.96875 1090.56L2.03126 1090.56ZM2.03126 1086.72L2.03126 1088.64L2.96875 1088.64L2.96875 1086.72L2.03126 1086.72ZM2.03126 1082.88L2.03126 1084.8L2.96875 1084.8L2.96875 1082.88L2.03126 1082.88ZM2.03126 1079.03L2.03126 1080.95L2.96875 1080.95L2.96875 1079.03L2.03126 1079.03ZM2.03125 1075.19L2.03125 1077.11L2.96875 1077.11L2.96875 1075.19L2.03125 1075.19ZM2.03125 1071.35L2.03125 1073.27L2.96875 1073.27L2.96875 1071.35L2.03125 1071.35ZM2.03125 1067.5L2.03125 1069.42L2.96875 1069.42L2.96875 1067.5L2.03125 1067.5ZM2.03125 1063.66L2.03125 1065.58L2.96875 1065.58L2.96875 1063.66L2.03125 1063.66ZM2.03125 1059.82L2.03125 1061.74L2.96875 1061.74L2.96875 1059.82L2.03125 1059.82ZM2.03125 1055.97L2.03125 1057.89L2.96875 1057.89L2.96875 1055.97L2.03125 1055.97ZM2.03125 1052.13L2.03125 1054.05L2.96875 1054.05L2.96875 1052.13L2.03125 1052.13ZM2.03125 1048.29L2.03125 1050.21L2.96875 1050.21L2.96875 1048.29L2.03125 1048.29ZM2.03125 1044.44L2.03125 1046.36L2.96875 1046.36L2.96875 1044.44L2.03125 1044.44ZM2.03125 1040.6L2.03125 1042.52L2.96875 1042.52L2.96875 1040.6L2.03125 1040.6ZM2.03125 1036.76L2.03125 1038.68L2.96875 1038.68L2.96875 1036.76L2.03125 1036.76ZM2.03125 1032.91L2.03125 1034.83L2.96875 1034.83L2.96875 1032.91L2.03125 1032.91ZM2.03125 1029.07L2.03125 1030.99L2.96875 1030.99L2.96875 1029.07L2.03125 1029.07ZM2.03125 1025.23L2.03125 1027.15L2.96875 1027.15L2.96875 1025.23L2.03125 1025.23ZM2.03125 1021.38L2.03125 1023.3L2.96875 1023.3L2.96875 1021.38L2.03125 1021.38ZM2.03125 1017.54L2.03125 1019.46L2.96875 1019.46L2.96875 1017.54L2.03125 1017.54ZM2.03125 1013.7L2.03125 1015.62L2.96875 1015.62L2.96875 1013.7L2.03125 1013.7ZM2.03125 1009.85L2.03125 1011.77L2.96875 1011.77L2.96875 1009.85L2.03125 1009.85ZM2.03125 1006.01L2.03125 1007.93L2.96875 1007.93L2.96875 1006.01L2.03125 1006.01ZM2.03125 1002.16L2.03125 1004.09L2.96875 1004.09L2.96875 1002.16L2.03125 1002.16ZM2.03125 998.322L2.03125 1000.24L2.96875 1000.24L2.96875 998.322L2.03125 998.322ZM2.03125 994.478L2.03125 996.4L2.96875 996.4L2.96875 994.478L2.03125 994.478ZM2.03125 990.635L2.03125 992.556L2.96875 992.556L2.96875 990.635L2.03125 990.635ZM2.03125 986.791L2.03125 988.713L2.96875 988.713L2.96875 986.791L2.03125 986.791ZM2.03125 982.948L2.03125 984.87L2.96875 984.87L2.96875 982.948L2.03125 982.948ZM2.03125 979.104L2.03125 981.026L2.96875 981.026L2.96875 979.104L2.03125 979.104ZM2.03125 975.261L2.03125 977.183L2.96875 977.183L2.96875 975.261L2.03125 975.261ZM2.03125 971.418L2.03125 973.339L2.96875 973.339L2.96875 971.418L2.03125 971.418ZM2.03125 967.574L2.03125 969.496L2.96875 969.496L2.96875 967.574L2.03125 967.574ZM2.03125 963.731L2.03125 965.653L2.96875 965.653L2.96875 963.731L2.03125 963.731ZM2.03125 959.887L2.03125 961.809L2.96875 961.809L2.96875 959.887L2.03125 959.887ZM2.03125 956.044L2.03125 957.966L2.96875 957.966L2.96875 956.044L2.03125 956.044ZM2.03125 952.201L2.03125 954.122L2.96875 954.122L2.96875 952.201L2.03125 952.201ZM2.03125 948.357L2.03125 950.279L2.96875 950.279L2.96875 948.357L2.03125 948.357ZM2.03125 944.514L2.03125 946.436L2.96875 946.436L2.96875 944.514L2.03125 944.514ZM2.03125 940.67L2.03125 942.592L2.96875 942.592L2.96875 940.67L2.03125 940.67ZM2.03125 936.827L2.03125 938.749L2.96875 938.749L2.96875 936.827L2.03125 936.827ZM2.03125 932.984L2.03125 934.905L2.96875 934.905L2.96875 932.984L2.03125 932.984ZM2.03125 929.14L2.03125 931.062L2.96875 931.062L2.96875 929.14L2.03125 929.14ZM2.03125 925.297L2.03125 927.219L2.96875 927.219L2.96875 925.297L2.03125 925.297ZM2.03125 921.453L2.03125 923.375L2.96875 923.375L2.96875 921.453L2.03125 921.453ZM2.03125 917.61L2.03125 919.532L2.96875 919.532L2.96875 917.61L2.03125 917.61ZM2.03125 913.767L2.03125 915.688L2.96875 915.688L2.96875 913.767L2.03125 913.767ZM2.03125 909.923L2.03125 911.845L2.96875 911.845L2.96875 909.923L2.03125 909.923ZM2.03125 906.08L2.03125 908.002L2.96875 908.002L2.96875 906.08L2.03125 906.08ZM2.03125 902.236L2.03125 904.158L2.96875 904.158L2.96875 902.236L2.03125 902.236ZM2.03125 898.393L2.03125 900.315L2.96875 900.315L2.96875 898.393L2.03125 898.393ZM2.03125 894.55L2.03125 896.471L2.96875 896.471L2.96875 894.55L2.03125 894.55ZM2.03125 890.706L2.03125 892.628L2.96875 892.628L2.96875 890.706L2.03125 890.706ZM2.03125 886.863L2.03125 888.784L2.96875 888.784L2.96875 886.863L2.03125 886.863ZM2.03125 883.019L2.03125 884.941L2.96875 884.941L2.96875 883.019L2.03125 883.019ZM2.03125 879.176L2.03125 881.098L2.96875 881.098L2.96875 879.176L2.03125 879.176ZM2.03125 875.333L2.03125 877.254L2.96875 877.254L2.96875 875.333L2.03125 875.333ZM2.03125 871.489L2.03125 873.411L2.96875 873.411L2.96875 871.489L2.03125 871.489ZM2.03125 867.646L2.03125 869.567L2.96875 869.567L2.96875 867.646L2.03125 867.646ZM2.03125 863.802L2.03125 865.724L2.96875 865.724L2.96875 863.802L2.03125 863.802ZM2.03125 859.959L2.03125 861.881L2.96875 861.881L2.96875 859.959L2.03125 859.959ZM2.03125 856.116L2.03125 858.037L2.96875 858.037L2.96875 856.116L2.03125 856.116ZM2.03125 852.272L2.03125 854.194L2.96875 854.194L2.96875 852.272L2.03125 852.272ZM2.03125 848.429L2.03125 850.35L2.96875 850.35L2.96875 848.429L2.03125 848.429ZM2.03125 844.585L2.03125 846.507L2.96875 846.507L2.96875 844.585L2.03125 844.585ZM2.03125 840.742L2.03125 842.664L2.96875 842.664L2.96875 840.742L2.03125 840.742ZM2.03125 836.899L2.03125 838.82L2.96875 838.82L2.96875 836.899L2.03125 836.899ZM2.03125 833.055L2.03125 834.977L2.96875 834.977L2.96875 833.055L2.03125 833.055ZM2.03125 829.212L2.03125 831.133L2.96875 831.133L2.96875 829.212L2.03125 829.212ZM2.03125 825.368L2.03125 827.29L2.96875 827.29L2.96875 825.368L2.03125 825.368ZM2.03125 821.525L2.03125 823.447L2.96875 823.447L2.96875 821.525L2.03125 821.525ZM2.03125 817.682L2.03125 819.603L2.96875 819.603L2.96875 817.682L2.03125 817.682ZM2.03125 813.838L2.03125 815.76L2.96875 815.76L2.96875 813.838L2.03125 813.838ZM2.03125 809.995L2.03125 811.917L2.96875 811.917L2.96875 809.995L2.03125 809.995ZM2.03125 806.152L2.03125 808.073L2.96875 808.073L2.96875 806.152L2.03125 806.152ZM2.03125 802.308L2.03125 804.23L2.96875 804.23L2.96875 802.308L2.03125 802.308ZM2.03125 798.465L2.03125 800.387L2.96875 800.387L2.96875 798.465L2.03125 798.465ZM2.03125 794.621L2.03125 796.543L2.96875 796.543L2.96875 794.621L2.03125 794.621ZM2.03125 790.778L2.03125 792.7L2.96875 792.7L2.96875 790.778L2.03125 790.778ZM2.03125 786.935L2.03125 788.856L2.96875 788.856L2.96875 786.935L2.03125 786.935ZM2.03125 783.091L2.03125 785.013L2.96875 785.013L2.96875 783.091L2.03125 783.091ZM2.03125 779.248L2.03125 781.17L2.96875 781.17L2.96875 779.248L2.03125 779.248ZM2.03125 775.405L2.03125 777.326L2.96875 777.326L2.96875 775.405L2.03125 775.405ZM2.03125 771.561L2.03125 773.483L2.96875 773.483L2.96875 771.561L2.03125 771.561ZM2.03125 767.718L2.03125 769.64L2.96875 769.64L2.96875 767.718L2.03125 767.718ZM2.03125 763.875L2.03125 765.796L2.96875 765.796L2.96875 763.875L2.03125 763.875ZM2.03125 760.031L2.03125 761.953L2.96875 761.953L2.96875 760.031L2.03125 760.031ZM2.03125 756.188L2.03125 758.11L2.96875 758.11L2.96875 756.188L2.03125 756.188ZM2.03125 752.345L2.03125 754.266L2.96875 754.266L2.96875 752.345L2.03125 752.345ZM2.03125 748.501L2.03125 750.423L2.96875 750.423L2.96875 748.501L2.03125 748.501ZM2.03125 744.658L2.03125 746.58L2.96875 746.58L2.96875 744.658L2.03125 744.658ZM2.03125 740.815L2.03125 742.736L2.96875 742.736L2.96875 740.815L2.03125 740.815ZM2.03125 736.971L2.03125 738.893L2.96875 738.893L2.96875 736.971L2.03125 736.971ZM2.03125 733.128L2.03125 735.05L2.96875 735.05L2.96875 733.128L2.03125 733.128ZM2.03125 729.285L2.03125 731.206L2.96875 731.206L2.96875 729.285L2.03125 729.285ZM2.03125 725.441L2.03125 727.363L2.96875 727.363L2.96875 725.441L2.03125 725.441ZM2.03125 721.598L2.03125 723.52L2.96875 723.52L2.96875 721.598L2.03125 721.598ZM2.03125 717.755L2.03125 719.676L2.96875 719.676L2.96875 717.755L2.03125 717.755ZM2.03125 713.911L2.03125 715.833L2.96875 715.833L2.96875 713.911L2.03125 713.911ZM2.03125 710.068L2.03125 711.99L2.96875 711.99L2.96875 710.068L2.03125 710.068ZM2.03125 706.225L2.03125 708.146L2.96875 708.146L2.96875 706.225L2.03125 706.225ZM2.03125 702.381L2.03125 704.303L2.96875 704.303L2.96875 702.381L2.03125 702.381ZM2.03125 698.538L2.03125 700.46L2.96875 700.46L2.96875 698.538L2.03125 698.538ZM2.03125 694.695L2.03125 696.616L2.96875 696.616L2.96875 694.695L2.03125 694.695ZM2.03125 690.851L2.03125 692.773L2.96875 692.773L2.96875 690.851L2.03125 690.851ZM2.03125 687.008L2.03125 688.929L2.96875 688.929L2.96875 687.008L2.03125 687.008ZM2.03125 683.164L2.03125 685.086L2.96875 685.086L2.96875 683.164L2.03125 683.164ZM2.03125 679.321L2.03125 681.243L2.96875 681.243L2.96875 679.321L2.03125 679.321ZM2.03125 675.478L2.03125 677.399L2.96875 677.399L2.96875 675.478L2.03125 675.478ZM2.03125 671.634L2.03125 673.556L2.96875 673.556L2.96875 671.634L2.03125 671.634ZM2.03125 667.791L2.03125 669.713L2.96875 669.713L2.96875 667.791L2.03125 667.791ZM2.03125 663.948L2.03125 665.869L2.96875 665.869L2.96875 663.948L2.03125 663.948ZM2.03125 660.104L2.03125 662.026L2.96875 662.026L2.96875 660.104L2.03125 660.104ZM2.03125 656.261L2.03125 658.183L2.96875 658.183L2.96875 656.261L2.03125 656.261ZM2.03125 652.418L2.03125 654.339L2.96875 654.339L2.96875 652.418L2.03125 652.418ZM2.03125 648.574L2.03125 650.496L2.96875 650.496L2.96875 648.574L2.03125 648.574ZM2.03125 644.731L2.03125 646.653L2.96875 646.653L2.96875 644.731L2.03125 644.731ZM2.03125 640.888L2.03125 642.809L2.96875 642.809L2.96875 640.888L2.03125 640.888ZM2.03125 637.044L2.03125 638.966L2.96875 638.966L2.96875 637.044L2.03125 637.044ZM2.03125 633.201L2.03125 635.123L2.96875 635.123L2.96875 633.201L2.03125 633.201ZM2.03125 629.358L2.03125 631.279L2.96875 631.279L2.96875 629.358L2.03125 629.358ZM2.03125 625.514L2.03125 627.436L2.96875 627.436L2.96875 625.514L2.03125 625.514ZM2.03125 621.671L2.03125 623.593L2.96875 623.593L2.96875 621.671L2.03125 621.671ZM2.03125 617.828L2.03125 619.749L2.96875 619.749L2.96875 617.828L2.03125 617.828ZM2.03125 613.984L2.03125 615.906L2.96875 615.906L2.96875 613.984L2.03125 613.984ZM2.03125 610.141L2.03125 612.063L2.96875 612.063L2.96875 610.141L2.03125 610.141ZM2.03125 606.297L2.03125 608.219L2.96875 608.219L2.96875 606.297L2.03125 606.297ZM2.03125 602.454L2.03125 604.376L2.96875 604.376L2.96875 602.454L2.03125 602.454ZM2.03125 598.611L2.03125 600.533L2.96875 600.533L2.96875 598.611L2.03125 598.611ZM2.03125 594.768L2.03125 596.689L2.96875 596.689L2.96875 594.768L2.03125 594.768ZM2.03125 590.924L2.03125 592.846L2.96875 592.846L2.96875 590.924L2.03125 590.924ZM2.03125 587.081L2.03125 589.002L2.96875 589.002L2.96875 587.081L2.03125 587.081ZM2.03125 583.237L2.03125 585.159L2.96875 585.159L2.96875 583.237L2.03125 583.237ZM2.03125 579.394L2.03125 581.316L2.96875 581.316L2.96875 579.394L2.03125 579.394ZM2.03125 575.551L2.03125 577.472L2.96875 577.472L2.96875 575.551L2.03125 575.551ZM2.03125 571.708L2.03125 573.629L2.96875 573.629L2.96875 571.708L2.03125 571.708ZM2.03125 567.864L2.03125 569.786L2.96875 569.786L2.96875 567.864L2.03125 567.864ZM2.03125 564.021L2.03125 565.942L2.96875 565.942L2.96875 564.021L2.03125 564.021ZM2.03125 560.177L2.03125 562.099L2.96875 562.099L2.96875 560.177L2.03125 560.177ZM2.03125 556.334L2.03125 558.256L2.96875 558.256L2.96875 556.334L2.03125 556.334ZM2.03125 552.491L2.03125 554.412L2.96875 554.412L2.96875 552.491L2.03125 552.491ZM2.03125 548.647L2.03125 550.569L2.96875 550.569L2.96875 548.647L2.03125 548.647ZM2.03125 544.804L2.03125 546.726L2.96875 546.726L2.96875 544.804L2.03125 544.804ZM2.03125 540.961L2.03125 542.882L2.96875 542.882L2.96875 540.961L2.03125 540.961ZM2.03125 537.117L2.03125 539.039L2.96875 539.039L2.96875 537.117L2.03125 537.117ZM2.03125 533.274L2.03125 535.196L2.96875 535.196L2.96875 533.274L2.03125 533.274ZM2.03125 529.431L2.03125 531.352L2.96875 531.352L2.96875 529.431L2.03125 529.431ZM2.03125 525.587L2.03125 527.509L2.96875 527.509L2.96875 525.587L2.03125 525.587ZM2.03125 521.744L2.03125 523.666L2.96875 523.666L2.96875 521.744L2.03125 521.744ZM2.03125 517.901L2.03125 519.822L2.96875 519.822L2.96875 517.901L2.03125 517.901ZM2.03125 514.057L2.03125 515.979L2.96875 515.979L2.96875 514.057L2.03125 514.057ZM2.03125 510.214L2.03125 512.136L2.96875 512.136L2.96875 510.214L2.03125 510.214ZM2.03125 506.371L2.03125 508.292L2.96875 508.292L2.96875 506.371L2.03125 506.371ZM2.03125 502.527L2.03125 504.449L2.96875 504.449L2.96875 502.527L2.03125 502.527ZM2.03125 498.684L2.03125 500.606L2.96875 500.606L2.96875 498.684L2.03125 498.684ZM2.03125 494.84L2.03125 496.762L2.96875 496.762L2.96875 494.84L2.03125 494.84ZM2.03125 490.997L2.03125 492.919L2.96875 492.919L2.96875 490.997L2.03125 490.997ZM2.03125 487.154L2.03125 489.076L2.96875 489.076L2.96875 487.154L2.03125 487.154ZM2.03125 483.31L2.03125 485.232L2.96875 485.232L2.96875 483.31L2.03125 483.31ZM2.03125 479.467L2.03125 481.389L2.96875 481.389L2.96875 479.467L2.03125 479.467ZM2.03125 475.624L2.03125 477.545L2.96875 477.545L2.96875 475.624L2.03125 475.624ZM2.03125 471.78L2.03125 473.702L2.96875 473.702L2.96875 471.78L2.03125 471.78ZM2.03125 467.937L2.03125 469.859L2.96875 469.859L2.96875 467.937L2.03125 467.937ZM2.03125 464.094L2.03125 466.015L2.96875 466.015L2.96875 464.094L2.03125 464.094ZM2.03125 460.25L2.03125 462.172L2.96875 462.172L2.96875 460.25L2.03125 460.25ZM2.03125 456.407L2.03125 458.329L2.96875 458.329L2.96875 456.407L2.03125 456.407ZM2.03125 452.564L2.03125 454.485L2.96875 454.485L2.96875 452.564L2.03125 452.564ZM2.03125 448.72L2.03125 450.642L2.96875 450.642L2.96875 448.72L2.03125 448.72ZM2.03125 444.877L2.03125 446.799L2.96875 446.799L2.96875 444.877L2.03125 444.877ZM2.03125 441.034L2.03125 442.955L2.96875 442.955L2.96875 441.034L2.03125 441.034ZM2.03125 437.19L2.03125 439.112L2.96875 439.112L2.96875 437.19L2.03125 437.19ZM2.03125 433.347L2.03125 435.269L2.96875 435.269L2.96875 433.347L2.03125 433.347ZM2.03125 429.504L2.03125 431.425L2.96875 431.425L2.96875 429.504L2.03125 429.504ZM2.03125 425.66L2.03125 427.582L2.96875 427.582L2.96875 425.66L2.03125 425.66ZM2.03125 421.817L2.03125 423.739L2.96875 423.739L2.96875 421.817L2.03125 421.817ZM2.03125 417.974L2.03125 419.895L2.96875 419.895L2.96875 417.974L2.03125 417.974ZM2.03125 414.13L2.03125 416.052L2.96875 416.052L2.96875 414.13L2.03125 414.13ZM2.03125 410.287L2.03125 412.209L2.96875 412.209L2.96875 410.287L2.03125 410.287ZM2.03125 406.444L2.03125 408.365L2.96875 408.365L2.96875 406.444L2.03125 406.444ZM2.03125 402.6L2.03125 404.522L2.96875 404.522L2.96875 402.6L2.03125 402.6ZM2.03125 398.757L2.03125 400.679L2.96875 400.679L2.96875 398.757L2.03125 398.757ZM2.03125 394.914L2.03125 396.835L2.96875 396.835L2.96875 394.914L2.03125 394.914ZM2.03125 391.07L2.03125 392.992L2.96875 392.992L2.96875 391.07L2.03125 391.07ZM2.03125 387.227L2.03125 389.149L2.96875 389.149L2.96875 387.227L2.03125 387.227ZM2.03125 383.383L2.03125 385.305L2.96875 385.305L2.96875 383.383L2.03125 383.383ZM2.03125 379.54L2.03125 381.462L2.96875 381.462L2.96875 379.54L2.03125 379.54ZM2.03125 375.697L2.03125 377.618L2.96875 377.618L2.96875 375.697L2.03125 375.697ZM2.03125 371.853L2.03125 373.775L2.96875 373.775L2.96875 371.853L2.03125 371.853ZM2.03125 368.01L2.03125 369.932L2.96875 369.932L2.96875 368.01L2.03125 368.01ZM2.03125 364.167L2.03125 366.088L2.96875 366.088L2.96875 364.167L2.03125 364.167ZM2.03125 360.323L2.03125 362.245L2.96875 362.245L2.96875 360.323L2.03125 360.323ZM2.03125 356.48L2.03125 358.402L2.96875 358.402L2.96875 356.48L2.03125 356.48ZM2.03125 352.637L2.03125 354.558L2.96875 354.558L2.96875 352.637L2.03125 352.637ZM2.03125 348.793L2.03125 350.715L2.96875 350.715L2.96875 348.793L2.03125 348.793ZM2.03125 344.95L2.03125 346.872L2.96875 346.872L2.96875 344.95L2.03125 344.95ZM2.03125 341.107L2.03125 343.028L2.96875 343.028L2.96875 341.107L2.03125 341.107ZM2.03125 337.263L2.03125 339.185L2.96875 339.185L2.96875 337.263L2.03125 337.263ZM2.03125 333.42L2.03125 335.342L2.96875 335.342L2.96875 333.42L2.03125 333.42ZM2.03125 329.577L2.03125 331.498L2.96875 331.498L2.96875 329.577L2.03125 329.577ZM2.03125 325.733L2.03125 327.655L2.96875 327.655L2.96875 325.733L2.03125 325.733ZM2.03125 321.89L2.03125 323.811L2.96875 323.811L2.96875 321.89L2.03125 321.89ZM2.03125 318.046L2.03125 319.968L2.96875 319.968L2.96875 318.046L2.03125 318.046ZM2.03125 314.203L2.03125 316.125L2.96875 316.125L2.96875 314.203L2.03125 314.203ZM2.03125 310.359L2.03125 312.281L2.96875 312.281L2.96875 310.359L2.03125 310.359ZM2.03125 306.516L2.03125 308.438L2.96875 308.438L2.96875 306.516L2.03125 306.516ZM2.03125 302.672L2.03125 304.594L2.96875 304.594L2.96875 302.672L2.03125 302.672ZM2.03125 298.829L2.03125 300.751L2.96875 300.751L2.96875 298.829L2.03125 298.829ZM2.03125 294.986L2.03125 296.907L2.96875 296.907L2.96875 294.986L2.03125 294.986ZM2.03125 291.142L2.03125 293.064L2.96875 293.064L2.96875 291.142L2.03125 291.142ZM2.03125 287.299L2.03125 289.22L2.96875 289.22L2.96875 287.299L2.03125 287.299ZM2.03125 283.455L2.03125 285.377L2.96875 285.377L2.96875 283.455L2.03125 283.455ZM2.03125 279.612L2.03125 281.533L2.96875 281.533L2.96875 279.612L2.03125 279.612ZM2.03125 275.768L2.03125 277.69L2.96875 277.69L2.96875 275.768L2.03125 275.768ZM2.03125 271.925L2.03125 273.846L2.96875 273.846L2.96874 271.925L2.03125 271.925ZM2.03125 268.081L2.03125 270.003L2.96874 270.003L2.96874 268.081L2.03125 268.081ZM2.03125 264.238L2.03125 266.16L2.96874 266.16L2.96874 264.238L2.03125 264.238ZM2.03125 260.394L2.03125 262.316L2.96874 262.316L2.96874 260.394L2.03125 260.394ZM2.03125 256.551L2.03125 258.473L2.96874 258.473L2.96874 256.551L2.03125 256.551ZM2.03125 252.707L2.03125 254.629L2.96874 254.629L2.96874 252.707L2.03125 252.707ZM2.03125 248.864L2.03125 250.786L2.96874 250.786L2.96874 248.864L2.03125 248.864ZM2.03125 245.02L2.03125 246.942L2.96874 246.942L2.96874 245.02L2.03125 245.02ZM2.03125 241.177L2.03125 243.099L2.96874 243.099L2.96874 241.177L2.03125 241.177ZM2.03125 237.334L2.03125 239.255L2.96874 239.255L2.96874 237.334L2.03125 237.334ZM2.03125 233.49L2.03125 235.412L2.96874 235.412L2.96874 233.49L2.03125 233.49ZM2.03125 229.647L2.03125 231.568L2.96874 231.568L2.96874 229.647L2.03125 229.647ZM2.03125 225.803L2.03125 227.725L2.96874 227.725L2.96874 225.803L2.03125 225.803ZM2.03125 221.96L2.03125 223.881L2.96874 223.881L2.96874 221.96L2.03125 221.96ZM2.03125 218.116L2.03125 220.038L2.96874 220.038L2.96874 218.116L2.03125 218.116ZM2.03125 214.273L2.03125 216.195L2.96874 216.195L2.96874 214.273L2.03125 214.273ZM2.03125 210.429L2.03125 212.351L2.96874 212.351L2.96874 210.429L2.03125 210.429ZM2.03125 206.586L2.03125 208.508L2.96874 208.508L2.96874 206.586L2.03125 206.586ZM2.03125 202.742L2.03125 204.664L2.96874 204.664L2.96874 202.742L2.03125 202.742ZM2.03125 198.899L2.03125 200.821L2.96874 200.821L2.96874 198.899L2.03125 198.899ZM2.03125 195.055L2.03125 196.977L2.96874 196.977L2.96874 195.055L2.03125 195.055ZM2.03125 191.212L2.03125 193.134L2.96874 193.134L2.96874 191.212L2.03125 191.212ZM2.03125 187.369L2.03125 189.29L2.96874 189.29L2.96874 187.369L2.03125 187.369ZM2.03125 183.525L2.03125 185.447L2.96874 185.447L2.96874 183.525L2.03125 183.525ZM2.03125 179.682L2.03125 181.603L2.96874 181.603L2.96874 179.682L2.03125 179.682ZM2.03125 175.838L2.03125 177.76L2.96874 177.76L2.96874 175.838L2.03125 175.838ZM2.03125 171.995L2.03125 173.916L2.96874 173.916L2.96874 171.995L2.03125 171.995ZM2.03125 168.151L2.03125 170.073L2.96874 170.073L2.96874 168.151L2.03125 168.151ZM2.03125 164.308L2.03125 166.229L2.96874 166.229L2.96874 164.308L2.03125 164.308ZM2.03125 160.464L2.03125 162.386L2.96874 162.386L2.96874 160.464L2.03125 160.464ZM2.03125 156.621L2.03125 158.543L2.96874 158.543L2.96874 156.621L2.03125 156.621ZM2.03125 152.777L2.03125 154.699L2.96874 154.699L2.96874 152.777L2.03125 152.777ZM2.03125 148.934L2.03125 150.856L2.96874 150.856L2.96874 148.934L2.03125 148.934ZM2.03125 145.09L2.03125 147.012L2.96874 147.012L2.96874 145.09L2.03125 145.09ZM2.03125 141.247L2.03125 143.169L2.96874 143.169L2.96874 141.247L2.03125 141.247ZM2.03125 137.404L2.03125 139.325L2.96874 139.325L2.96874 137.404L2.03125 137.404ZM2.03125 133.56L2.03125 135.482L2.96874 135.482L2.96874 133.56L2.03125 133.56ZM2.03125 129.717L2.03125 131.638L2.96874 131.638L2.96874 129.717L2.03125 129.717ZM2.03125 125.873L2.03125 127.795L2.96874 127.795L2.96874 125.873L2.03125 125.873ZM2.03125 122.03L2.03125 123.951L2.96874 123.951L2.96874 122.03L2.03125 122.03ZM2.03125 118.186L2.03125 120.108L2.96874 120.108L2.96874 118.186L2.03125 118.186ZM2.03125 114.343L2.03125 116.264L2.96874 116.264L2.96874 114.343L2.03125 114.343ZM2.03125 110.499L2.03125 112.421L2.96874 112.421L2.96874 110.499L2.03125 110.499ZM2.03125 106.656L2.03125 108.578L2.96874 108.578L2.96874 106.656L2.03125 106.656ZM2.03125 102.812L2.03125 104.734L2.96874 104.734L2.96874 102.812L2.03125 102.812ZM2.03125 98.9689L2.03125 100.891L2.96874 100.891L2.96874 98.9689L2.03125 98.9689ZM2.03125 95.1254L2.03125 97.0472L2.96874 97.0472L2.96874 95.1254L2.03125 95.1254ZM2.03125 91.282L2.03125 93.2037L2.96874 93.2037L2.96874 91.282L2.03125 91.282ZM2.03125 87.4385L2.03125 89.3602L2.96874 89.3602L2.96874 87.4385L2.03125 87.4385ZM2.03125 83.5951L2.03125 85.5168L2.96874 85.5168L2.96874 83.595L2.03125 83.5951ZM2.03125 79.7516L2.03125 81.6733L2.96874 81.6733L2.96874 79.7516L2.03125 79.7516ZM2.03125 75.9081L2.03125 77.8299L2.96874 77.8299L2.96874 75.9081L2.03125 75.9081ZM2.03125 72.0647L2.03125 73.9864L2.96874 73.9864L2.96874 72.0647L2.03125 72.0647ZM2.03125 68.2212L2.03125 70.1429L2.96874 70.1429L2.96874 68.2212L2.03125 68.2212ZM2.03125 64.3777L2.03125 66.2995L2.96874 66.2995L2.96874 64.3777L2.03125 64.3777ZM2.03125 60.5343L2.03125 62.456L2.96874 62.456L2.96874 60.5343L2.03125 60.5343ZM2.03125 56.6908L2.03125 58.6125L2.96874 58.6125L2.96874 56.6908L2.03125 56.6908ZM2.03125 52.8473L2.03125 54.7691L2.96874 54.7691L2.96874 52.8473L2.03125 52.8473ZM2.03125 49.0039L2.03125 50.9256L2.96874 50.9256L2.96874 49.0039L2.03125 49.0039ZM2.03125 45.1604L2.03125 47.0822L2.96874 47.0822L2.96874 45.1604L2.03125 45.1604ZM2.03125 41.317L2.03125 43.2387L2.96874 43.2387L2.96874 41.317L2.03125 41.317ZM2.03125 37.4735L2.03125 39.3952L2.96874 39.3952L2.96874 37.4735L2.03125 37.4735ZM2.03125 33.63L2.03125 35.5518L2.96874 35.5518L2.96874 33.63L2.03125 33.63ZM2.03125 29.7866L2.03125 31.7083L2.96874 31.7083L2.96874 29.7866L2.03125 29.7866ZM2.03124 25.9431L2.03124 27.8648L2.96874 27.8648L2.96874 25.9431L2.03124 25.9431ZM2.03124 22.0996L2.03124 24.0214L2.96874 24.0214L2.96874 22.0996L2.03124 22.0996ZM2.03124 18.2562L2.03124 20.1779L2.96874 20.1779L2.96874 18.2562L2.03124 18.2562ZM2.03124 14.4127L2.03124 16.3345L2.96874 16.3345L2.96874 14.4127L2.03124 14.4127ZM2.03124 10.5693L2.03124 12.491L2.96874 12.491L2.96874 10.5693L2.03124 10.5693ZM2.03124 6.72579L2.03124 8.64753L2.96874 8.64753L2.96874 6.72579L2.03124 6.72579ZM2.03124 2.88233L2.03124 4.80406L2.96874 4.80406L2.96874 2.88233L2.03124 2.88233ZM2.03124 -3.14149e-05L2.03124 0.9606L2.96874 0.9606L2.96874 -3.16027e-05L2.03124 -3.14149e-05Z" fill="#FDBA2F"/>
</svg>
