<svg width="7" height="56" viewBox="0 0 7 56" fill="none" xmlns="http://www.w3.org/2000/svg">
<path d="M3.5 1373.06C2.02724 1373.06 0.833333 1371.87 0.833333 1370.39C0.833333 1368.92 2.02724 1367.73 3.5 1367.73C4.97276 1367.73 6.16667 1368.92 6.16667 1370.39C6.16667 1371.87 4.97276 1373.06 3.5 1373.06ZM3 1370.39L3 1369.39L4 1369.39L4 1370.39L3 1370.39ZM3 1367.39L3 1365.39L4 1365.39L4 1367.39L3 1367.39ZM3 1363.38L3 1361.38L4 1361.38L4 1363.38L3 1363.38ZM3 1359.38L3 1357.38L4 1357.38L4 1359.38L3 1359.38ZM3 1355.37L3 1353.37L4 1353.37L4 1355.37L3 1355.37ZM3 1351.37L3 1349.37L4 1349.37L4 1351.37L3 1351.37ZM3 1347.36L3 1345.36L4 1345.36L4 1347.36L3 1347.36ZM3 1343.36L3 1341.36L4 1341.36L4 1343.36L3 1343.36ZM3 1339.35L3 1337.35L4 1337.35L4 1339.35L3 1339.35ZM3 1335.35L3 1333.35L4 1333.35L4 1335.35L3 1335.35ZM3 1331.34L3 1329.34L4 1329.34L4 1331.34L3 1331.34ZM3 1327.34L3 1325.33L4 1325.33L4 1327.34L3 1327.34ZM3 1323.33L3 1321.33L4 1321.33L4 1323.33L3 1323.33ZM3 1319.33L3 1317.32L4 1317.32L4 1319.33L3 1319.33ZM3 1315.32L3 1313.32L4 1313.32L4 1315.32L3 1315.32ZM3 1311.32L3 1309.31L4 1309.31L4 1311.32L3 1311.32ZM3 1307.31L3 1305.31L4 1305.31L4 1307.31L3 1307.31ZM3 1303.31L3 1301.3L4 1301.3L4 1303.31L3 1303.31ZM3 1299.3L3 1297.3L4 1297.3L4 1299.3L3 1299.3ZM3 1295.29L3 1293.29L4 1293.29L4 1295.29L3 1295.29ZM3 1291.29L3 1289.29L4 1289.29L4 1291.29L3 1291.29ZM3 1287.28L3 1285.28L4 1285.28L4 1287.28L3 1287.28ZM3 1283.28L3 1281.28L4 1281.28L4 1283.28L3 1283.28ZM3 1279.27L3 1277.27L4 1277.27L4 1279.27L3 1279.27ZM3 1275.27L3 1273.27L4 1273.27L4 1275.27L3 1275.27ZM3 1271.26L3 1269.26L4 1269.26L4 1271.26L3 1271.26ZM3 1267.26L3 1265.25L4 1265.25L4 1267.26L3 1267.26ZM3 1263.25L3 1261.25L4 1261.25L4 1263.25L3 1263.25ZM3 1259.25L3 1257.24L4 1257.24L4 1259.25L3 1259.25ZM3 1255.24L3 1253.24L4 1253.24L4 1255.24L3 1255.24ZM3 1251.24L3 1249.23L4 1249.23L4 1251.24L3 1251.24ZM3 1247.23L3 1245.23L4 1245.23L4 1247.23L3 1247.23ZM3 1243.23L3 1241.22L4 1241.22L4 1243.23L3 1243.23ZM3 1239.22L3 1237.22L4 1237.22L4 1239.22L3 1239.22ZM3 1235.22L3 1233.21L4 1233.21L4 1235.22L3 1235.22ZM3 1231.21L3 1229.21L4 1229.21L4 1231.21L3 1231.21ZM3 1227.2L3 1225.2L4 1225.2L4 1227.2L3 1227.2ZM3 1223.2L3 1221.2L4 1221.2L4 1223.2L3 1223.2ZM3 1219.19L3 1217.19L4 1217.19L4 1219.19L3 1219.19ZM3 1215.19L3 1213.19L4 1213.19L4 1215.19L3 1215.19ZM3 1211.18L3 1209.18L4 1209.18L4 1211.18L3 1211.18ZM3 1207.18L3 1205.18L4 1205.18L4 1207.18L3 1207.18ZM3 1203.17L3 1201.17L4 1201.17L4 1203.17L3 1203.17ZM3 1199.17L3 1197.16L4 1197.16L4 1199.17L3 1199.17ZM3 1195.16L3 1193.16L4 1193.16L4 1195.16L3 1195.16ZM3 1191.16L3 1189.15L4 1189.15L4 1191.16L3 1191.16ZM3 1187.15L3 1185.15L4 1185.15L4 1187.15L3 1187.15ZM3 1183.15L3 1181.14L4 1181.14L4 1183.15L3 1183.15ZM3 1179.14L3 1177.14L4 1177.14L4 1179.14L3 1179.14ZM3 1175.14L3 1173.13L4 1173.13L4 1175.14L3 1175.14ZM3 1171.13L3 1169.13L4 1169.13L4 1171.13L3 1171.13ZM3 1167.12L3 1165.12L4 1165.12L4 1167.12L3 1167.12ZM3 1163.12L3 1161.12L4 1161.12L4 1163.12L3 1163.12ZM3 1159.11L3 1157.11L4 1157.11L4 1159.11L3 1159.11ZM3 1155.11L3 1153.11L4 1153.11L4 1155.11L3 1155.11ZM3 1151.1L3 1149.1L4 1149.1L4 1151.1L3 1151.1ZM3 1147.1L3 1145.1L4 1145.1L4 1147.1L3 1147.1ZM3 1143.09L3 1141.09L4 1141.09L4 1143.09L3 1143.09ZM3 1139.09L3 1137.09L4 1137.09L4 1139.09L3 1139.09ZM3 1135.08L3 1133.08L4 1133.08L4 1135.08L3 1135.08ZM3 1131.08L3 1129.07L4 1129.07L4 1131.08L3 1131.08ZM3 1127.07L3 1125.07L4 1125.07L4 1127.07L3 1127.07ZM3 1123.07L3 1121.06L4 1121.06L4 1123.07L3 1123.07ZM3 1119.06L3 1117.06L4 1117.06L4 1119.06L3 1119.06ZM3 1115.06L3 1113.05L4 1113.05L4 1115.06L3 1115.06ZM3 1111.05L3 1109.05L4 1109.05L4 1111.05L3 1111.05ZM3 1107.05L3 1105.04L4 1105.04L4 1107.05L3 1107.05ZM3 1103.04L3 1101.04L4 1101.04L4 1103.04L3 1103.04ZM3 1099.03L3 1097.03L4 1097.03L4 1099.03L3 1099.03ZM3 1095.03L3 1093.03L4 1093.03L4 1095.03L3 1095.03ZM3 1091.02L3 1089.02L4 1089.02L4 1091.02L3 1091.02ZM3 1087.02L3 1085.02L4 1085.02L4 1087.02L3 1087.02ZM3 1083.01L3 1081.01L4 1081.01L4 1083.01L3 1083.01ZM3 1079.01L3 1077.01L4 1077.01L4 1079.01L3 1079.01ZM3 1075L3 1073L4 1073L4 1075L3 1075ZM3 1071L3 1068.99L4 1068.99L4 1071L3 1071ZM3 1066.99L3 1064.99L4 1064.99L4 1066.99L3 1066.99ZM3 1062.99L3 1060.98L4 1060.98L4 1062.99L3 1062.99ZM3 1058.98L3 1056.98L4 1056.98L4 1058.98L3 1058.98ZM3 1054.98L3 1052.97L4 1052.97L4 1054.98L3 1054.98ZM3 1050.97L3 1048.97L4 1048.97L4 1050.97L3 1050.97ZM3 1046.97L3 1044.96L4 1044.96L4 1046.97L3 1046.97ZM3 1042.96L3 1040.96L4 1040.96L4 1042.96L3 1042.96ZM3 1038.96L3 1036.95L4 1036.95L4 1038.96L3 1038.96ZM3 1034.95L3 1032.95L4 1032.95L4 1034.95L3 1034.95ZM3 1030.94L3 1028.94L4 1028.94L4 1030.94L3 1030.94ZM3 1026.94L3 1024.94L4 1024.94L4 1026.94L3 1026.94ZM3 1022.93L3 1020.93L4 1020.93L4 1022.93L3 1022.93ZM3 1018.93L3 1016.93L4 1016.93L4 1018.93L3 1018.93ZM3 1014.92L3 1012.92L4 1012.92L4 1014.92L3 1014.92ZM3 1010.92L3 1008.92L4 1008.92L4 1010.92L3 1010.92ZM3 1006.91L3 1004.91L4 1004.91L4 1006.91L3 1006.91ZM3 1002.91L3 1000.9L4 1000.9L4 1002.91L3 1002.91ZM3 998.902L3 996.899L4 996.899L4 998.902L3 998.902ZM3 994.897L3 992.894L4 992.894L4 994.897L3 994.897ZM3 990.891L3 988.889L4 988.889L4 990.891L3 990.891ZM3 986.886L3 984.883L4 984.883L4 986.886L3 986.886ZM3 982.881L3 980.878L4 980.878L4 982.881L3 982.881ZM3 978.875L3 976.873L4 976.873L4 978.875L3 978.875ZM3 974.87L3 972.867L4 972.867L4 974.87L3 974.87ZM3 970.865L3 968.862L4 968.862L4 970.865L3 970.865ZM3 966.859L3 964.857L4 964.857L4 966.859L3 966.859ZM3 962.854L3 960.851L4 960.851L4 962.854L3 962.854ZM3 958.849L3 956.846L4 956.846L4 958.849L3 958.849ZM3 954.844L3 952.841L4 952.841L4 954.844L3 954.844ZM3 950.838L3 948.836L4 948.836L4 950.838L3 950.838ZM3 946.833L3 944.83L4 944.83L4 946.833L3 946.833ZM3 942.828L3 940.825L4 940.825L4 942.828L3 942.828ZM3 938.822L3 936.82L4 936.82L4 938.822L3 938.822ZM3 934.817L3 932.814L4 932.814L4 934.817L3 934.817ZM3 930.812L3 928.809L4 928.809L4 930.812L3 930.812ZM3 926.806L3 924.804L4 924.804L4 926.806L3 926.806ZM3 922.801L3 920.798L4 920.798L4 922.801L3 922.801ZM3 918.796L3 916.793L4 916.793L4 918.796L3 918.796ZM3 914.79L3 912.788L4 912.788L4 914.79L3 914.79ZM3 910.785L3 908.782L4 908.782L4 910.785L3 910.785ZM3 906.78L3 904.777L4 904.777L4 906.78L3 906.78ZM3 902.774L3 900.772L4 900.772L4 902.774L3 902.774ZM3 898.769L3 896.767L4 896.767L4 898.769L3 898.769ZM3 894.764L3 892.761L4 892.761L4 894.764L3 894.764ZM3 890.759L3 888.756L4 888.756L4 890.759L3 890.759ZM3 886.753L3 884.751L4 884.751L4 886.753L3 886.753ZM3 882.748L3 880.745L4 880.745L4 882.748L3 882.748ZM3 878.743L3 876.74L4 876.74L4 878.743L3 878.743ZM3 874.737L3 872.735L4 872.735L4 874.737L3 874.737ZM3 870.732L3 868.729L4 868.729L4 870.732L3 870.732ZM3 866.727L3 864.724L4 864.724L4 866.727L3 866.727ZM3 862.721L3 860.719L4 860.719L4 862.721L3 862.721ZM3 858.716L3 856.713L4 856.713L4 858.716L3 858.716ZM3 854.711L3 852.708L4 852.708L4 854.711L3 854.711ZM3 850.706L3 848.703L4 848.703L4 850.706L3 850.706ZM3 846.7L2.99999 844.698L3.99999 844.698L4 846.7L3 846.7ZM2.99999 842.695L2.99999 840.692L3.99999 840.692L3.99999 842.695L2.99999 842.695ZM2.99999 838.69L2.99999 836.687L3.99999 836.687L3.99999 838.69L2.99999 838.69ZM2.99999 834.685L2.99999 832.682L3.99999 832.682L3.99999 834.685L2.99999 834.685ZM2.99999 830.679L2.99999 828.677L3.99999 828.677L3.99999 830.679L2.99999 830.679ZM2.99999 826.674L2.99999 824.671L3.99999 824.671L3.99999 826.674L2.99999 826.674ZM2.99999 822.669L2.99999 820.666L3.99999 820.666L3.99999 822.669L2.99999 822.669ZM2.99999 818.664L2.99999 816.661L3.99999 816.661L3.99999 818.664L2.99999 818.664ZM2.99999 814.658L2.99999 812.656L3.99999 812.656L3.99999 814.658L2.99999 814.658ZM2.99999 810.653L2.99999 808.65L3.99999 808.65L3.99999 810.653L2.99999 810.653ZM2.99999 806.648L2.99999 804.645L3.99999 804.645L3.99999 806.648L2.99999 806.648ZM2.99999 802.643L2.99999 800.64L3.99999 800.64L3.99999 802.643L2.99999 802.643ZM2.99999 798.637L2.99999 796.635L3.99999 796.635L3.99999 798.637L2.99999 798.637ZM2.99999 794.632L2.99999 792.629L3.99999 792.629L3.99999 794.632L2.99999 794.632ZM2.99999 790.627L2.99999 788.624L3.99999 788.624L3.99999 790.627L2.99999 790.627ZM2.99999 786.622L2.99999 784.619L3.99999 784.619L3.99999 786.622L2.99999 786.622ZM2.99999 782.616L2.99999 780.614L3.99999 780.614L3.99999 782.616L2.99999 782.616ZM2.99999 778.611L2.99999 776.608L3.99999 776.608L3.99999 778.611L2.99999 778.611ZM2.99999 774.606L2.99999 772.603L3.99999 772.603L3.99999 774.606L2.99999 774.606ZM2.99999 770.601L2.99999 768.598L3.99999 768.598L3.99999 770.601L2.99999 770.601ZM2.99999 766.595L2.99999 764.593L3.99999 764.593L3.99999 766.595L2.99999 766.595ZM2.99999 762.59L2.99999 760.587L3.99999 760.587L3.99999 762.59L2.99999 762.59ZM2.99999 758.585L2.99999 756.582L3.99999 756.582L3.99999 758.585L2.99999 758.585ZM2.99999 754.58L2.99999 752.577L3.99999 752.577L3.99999 754.58L2.99999 754.58ZM2.99999 750.574L2.99999 748.572L3.99999 748.572L3.99999 750.574L2.99999 750.574ZM2.99999 746.569L2.99999 744.566L3.99999 744.566L3.99999 746.569L2.99999 746.569ZM2.99999 742.564L2.99999 740.561L3.99999 740.561L3.99999 742.564L2.99999 742.564ZM2.99999 738.559L2.99999 736.556L3.99999 736.556L3.99999 738.559L2.99999 738.559ZM2.99999 734.553L2.99999 732.551L3.99999 732.551L3.99999 734.553L2.99999 734.553ZM2.99999 730.548L2.99999 728.545L3.99999 728.545L3.99999 730.548L2.99999 730.548ZM2.99999 726.543L2.99999 724.54L3.99999 724.54L3.99999 726.543L2.99999 726.543ZM2.99999 722.538L2.99999 720.535L3.99999 720.535L3.99999 722.538L2.99999 722.538ZM2.99999 718.532L2.99999 716.53L3.99999 716.53L3.99999 718.532L2.99999 718.532ZM2.99999 714.527L2.99999 712.524L3.99999 712.524L3.99999 714.527L2.99999 714.527ZM2.99999 710.522L2.99999 708.519L3.99999 708.519L3.99999 710.522L2.99999 710.522ZM2.99999 706.517L2.99999 704.514L3.99999 704.514L3.99999 706.517L2.99999 706.517ZM2.99999 702.511L2.99999 700.509L3.99999 700.509L3.99999 702.511L2.99999 702.511ZM2.99999 698.506L2.99999 696.503L3.99999 696.503L3.99999 698.506L2.99999 698.506ZM2.99999 694.501L2.99999 692.498L3.99999 692.498L3.99999 694.501L2.99999 694.501ZM2.99999 690.496L2.99999 688.493L3.99999 688.493L3.99999 690.496L2.99999 690.496ZM2.99999 686.49L2.99999 684.488L3.99999 684.488L3.99999 686.49L2.99999 686.49ZM2.99999 682.485L2.99999 680.482L3.99999 680.482L3.99999 682.485L2.99999 682.485ZM2.99999 678.48L2.99999 676.477L3.99999 676.477L3.99999 678.48L2.99999 678.48ZM2.99999 674.475L2.99999 672.472L3.99999 672.472L3.99999 674.475L2.99999 674.475ZM2.99999 670.469L2.99999 668.467L3.99999 668.467L3.99999 670.469L2.99999 670.469ZM2.99999 666.464L2.99999 664.461L3.99999 664.461L3.99999 666.464L2.99999 666.464ZM2.99999 662.459L2.99999 660.456L3.99999 660.456L3.99999 662.459L2.99999 662.459ZM2.99999 658.454L2.99999 656.451L3.99999 656.451L3.99999 658.454L2.99999 658.454ZM2.99999 654.448L2.99999 652.446L3.99999 652.446L3.99999 654.448L2.99999 654.448ZM2.99999 650.443L2.99999 648.44L3.99999 648.44L3.99999 650.443L2.99999 650.443ZM2.99999 646.438L2.99999 644.435L3.99999 644.435L3.99999 646.438L2.99999 646.438ZM2.99999 642.433L2.99999 640.43L3.99999 640.43L3.99999 642.433L2.99999 642.433ZM2.99999 638.427L2.99999 636.425L3.99999 636.425L3.99999 638.427L2.99999 638.427ZM2.99999 634.422L2.99999 632.419L3.99999 632.419L3.99999 634.422L2.99999 634.422ZM2.99999 630.417L2.99999 628.414L3.99999 628.414L3.99999 630.417L2.99999 630.417ZM2.99999 626.412L2.99999 624.409L3.99999 624.409L3.99999 626.412L2.99999 626.412ZM2.99999 622.406L2.99999 620.404L3.99999 620.404L3.99999 622.406L2.99999 622.406ZM2.99999 618.401L2.99999 616.398L3.99999 616.398L3.99999 618.401L2.99999 618.401ZM2.99999 614.396L2.99999 612.393L3.99999 612.393L3.99999 614.396L2.99999 614.396ZM2.99999 610.391L2.99999 608.388L3.99999 608.388L3.99999 610.391L2.99999 610.391ZM2.99999 606.385L2.99999 604.383L3.99999 604.383L3.99999 606.385L2.99999 606.385ZM2.99999 602.38L2.99999 600.378L3.99999 600.378L3.99999 602.38L2.99999 602.38ZM2.99999 598.375L2.99999 596.372L3.99999 596.372L3.99999 598.375L2.99999 598.375ZM2.99999 594.37L2.99999 592.367L3.99999 592.367L3.99999 594.37L2.99999 594.37ZM2.99999 590.364L2.99999 588.362L3.99999 588.362L3.99999 590.364L2.99999 590.364ZM2.99999 586.359L2.99999 584.357L3.99999 584.357L3.99999 586.359L2.99999 586.359ZM2.99999 582.354L2.99999 580.351L3.99999 580.351L3.99999 582.354L2.99999 582.354ZM2.99999 578.349L2.99999 576.346L3.99999 576.346L3.99999 578.349L2.99999 578.349ZM2.99999 574.343L2.99999 572.341L3.99999 572.341L3.99999 574.343L2.99999 574.343ZM2.99999 570.338L2.99999 568.336L3.99999 568.336L3.99999 570.338L2.99999 570.338ZM2.99999 566.333L2.99999 564.33L3.99999 564.33L3.99999 566.333L2.99999 566.333ZM2.99999 562.328L2.99999 560.325L3.99999 560.325L3.99999 562.328L2.99999 562.328ZM2.99999 558.322L2.99999 556.32L3.99999 556.32L3.99999 558.322L2.99999 558.322ZM2.99999 554.317L2.99999 552.314L3.99999 552.314L3.99999 554.317L2.99999 554.317ZM2.99999 550.312L2.99999 548.309L3.99999 548.309L3.99999 550.312L2.99999 550.312ZM2.99999 546.307L2.99999 544.304L3.99999 544.304L3.99999 546.307L2.99999 546.307ZM2.99999 542.301L2.99999 540.299L3.99999 540.299L3.99999 542.301L2.99999 542.301ZM2.99999 538.296L2.99999 536.294L3.99999 536.294L3.99999 538.296L2.99999 538.296ZM2.99999 534.291L2.99999 532.288L3.99999 532.288L3.99999 534.291L2.99999 534.291ZM2.99999 530.286L2.99999 528.283L3.99999 528.283L3.99999 530.286L2.99999 530.286ZM2.99999 526.28L2.99999 524.278L3.99999 524.278L3.99999 526.28L2.99999 526.28ZM2.99999 522.275L2.99999 520.273L3.99999 520.273L3.99999 522.275L2.99999 522.275ZM2.99999 518.27L2.99999 516.267L3.99999 516.267L3.99999 518.27L2.99999 518.27ZM2.99999 514.265L2.99999 512.262L3.99999 512.262L3.99999 514.265L2.99999 514.265ZM2.99999 510.259L2.99999 508.257L3.99999 508.257L3.99999 510.259L2.99999 510.259ZM2.99999 506.254L2.99999 504.252L3.99999 504.252L3.99999 506.254L2.99999 506.254ZM2.99999 502.249L2.99999 500.246L3.99999 500.246L3.99999 502.249L2.99999 502.249ZM2.99999 498.244L2.99999 496.241L3.99999 496.241L3.99999 498.244L2.99999 498.244ZM2.99999 494.238L2.99999 492.236L3.99999 492.236L3.99999 494.238L2.99999 494.238ZM2.99999 490.233L2.99999 488.231L3.99999 488.231L3.99999 490.233L2.99999 490.233ZM2.99999 486.228L2.99999 484.225L3.99999 484.225L3.99999 486.228L2.99999 486.228ZM2.99999 482.223L2.99999 480.22L3.99999 480.22L3.99999 482.223L2.99999 482.223ZM2.99999 478.217L2.99999 476.215L3.99999 476.215L3.99999 478.217L2.99999 478.217ZM2.99999 474.212L2.99999 472.21L3.99999 472.21L3.99999 474.212L2.99999 474.212ZM2.99999 470.207L2.99999 468.204L3.99999 468.204L3.99999 470.207L2.99999 470.207ZM2.99999 466.202L2.99999 464.199L3.99999 464.199L3.99999 466.202L2.99999 466.202ZM2.99999 462.196L2.99999 460.194L3.99999 460.194L3.99999 462.196L2.99999 462.196ZM2.99999 458.191L2.99999 456.189L3.99999 456.189L3.99999 458.191L2.99999 458.191ZM2.99999 454.186L2.99999 452.183L3.99999 452.183L3.99999 454.186L2.99999 454.186ZM2.99999 450.181L2.99999 448.178L3.99999 448.178L3.99999 450.181L2.99999 450.181ZM2.99999 446.175L2.99999 444.173L3.99999 444.173L3.99999 446.175L2.99999 446.175ZM2.99999 442.17L2.99999 440.168L3.99999 440.168L3.99999 442.17L2.99999 442.17ZM2.99999 438.165L2.99999 436.162L3.99999 436.162L3.99999 438.165L2.99999 438.165ZM2.99999 434.16L2.99999 432.157L3.99999 432.157L3.99999 434.16L2.99999 434.16ZM2.99999 430.154L2.99999 428.152L3.99999 428.152L3.99999 430.154L2.99999 430.154ZM2.99999 426.149L2.99999 424.147L3.99999 424.147L3.99999 426.149L2.99999 426.149ZM2.99999 422.144L2.99999 420.141L3.99999 420.141L3.99999 422.144L2.99999 422.144ZM2.99999 418.139L2.99999 416.136L3.99999 416.136L3.99999 418.139L2.99999 418.139ZM2.99999 414.133L2.99999 412.131L3.99999 412.131L3.99999 414.133L2.99999 414.133ZM2.99999 410.128L2.99999 408.126L3.99999 408.126L3.99999 410.128L2.99999 410.128ZM2.99999 406.123L2.99999 404.12L3.99999 404.12L3.99999 406.123L2.99999 406.123ZM2.99999 402.118L2.99999 400.115L3.99999 400.115L3.99999 402.118L2.99999 402.118ZM2.99999 398.112L2.99999 396.11L3.99999 396.11L3.99999 398.112L2.99999 398.112ZM2.99999 394.107L2.99999 392.105L3.99999 392.105L3.99999 394.107L2.99999 394.107ZM2.99999 390.102L2.99999 388.099L3.99999 388.099L3.99999 390.102L2.99999 390.102ZM2.99999 386.097L2.99999 384.094L3.99999 384.094L3.99999 386.097L2.99999 386.097ZM2.99999 382.091L2.99999 380.089L3.99999 380.089L3.99999 382.091L2.99999 382.091ZM2.99999 378.086L2.99999 376.084L3.99999 376.084L3.99999 378.086L2.99999 378.086ZM2.99999 374.081L2.99999 372.078L3.99999 372.078L3.99999 374.081L2.99999 374.081ZM2.99999 370.076L2.99999 368.073L3.99999 368.073L3.99999 370.076L2.99999 370.076ZM2.99999 366.07L2.99999 364.068L3.99999 364.068L3.99999 366.07L2.99999 366.07ZM2.99999 362.065L2.99999 360.063L3.99999 360.063L3.99999 362.065L2.99999 362.065ZM2.99999 358.06L2.99999 356.057L3.99999 356.057L3.99999 358.06L2.99999 358.06ZM2.99999 354.055L2.99999 352.052L3.99999 352.052L3.99999 354.055L2.99999 354.055ZM2.99999 350.049L2.99999 348.047L3.99999 348.047L3.99999 350.049L2.99999 350.049ZM2.99999 346.044L2.99999 344.042L3.99999 344.042L3.99999 346.044L2.99999 346.044ZM2.99999 342.039L2.99999 340.036L3.99999 340.036L3.99999 342.039L2.99999 342.039ZM2.99999 338.033L2.99999 336.031L3.99999 336.031L3.99999 338.033L2.99999 338.033ZM2.99999 334.028L2.99999 332.025L3.99999 332.025L3.99999 334.028L2.99999 334.028ZM2.99999 330.023L2.99999 328.02L3.99999 328.02L3.99999 330.023L2.99999 330.023ZM2.99999 326.017L2.99999 324.015L3.99999 324.015L3.99999 326.017L2.99999 326.017ZM2.99999 322.012L2.99999 320.009L3.99999 320.009L3.99999 322.012L2.99999 322.012ZM2.99999 318.007L2.99999 316.004L3.99999 316.004L3.99999 318.007L2.99999 318.007ZM2.99999 314.001L2.99999 311.999L3.99999 311.999L3.99999 314.001L2.99999 314.001ZM2.99999 309.996L2.99999 307.993L3.99999 307.993L3.99999 309.996L2.99999 309.996ZM2.99999 305.99L2.99999 303.988L3.99999 303.988L3.99999 305.99L2.99999 305.99ZM2.99999 301.985L2.99999 299.982L3.99999 299.982L3.99999 301.985L2.99999 301.985ZM2.99999 297.98L2.99999 295.977L3.99999 295.977L3.99999 297.98L2.99999 297.98ZM2.99999 293.974L2.99999 291.972L3.99999 291.972L3.99999 293.974L2.99999 293.974ZM2.99999 289.969L2.99999 287.966L3.99999 287.966L3.99999 289.969L2.99999 289.969ZM2.99999 285.964L2.99999 283.961L3.99999 283.961L3.99999 285.964L2.99999 285.964ZM2.99999 281.958L2.99999 279.956L3.99999 279.956L3.99999 281.958L2.99999 281.958ZM2.99999 277.953L2.99999 275.95L3.99999 275.95L3.99999 277.953L2.99999 277.953ZM2.99999 273.948L2.99999 271.945L3.99999 271.945L3.99999 273.948L2.99999 273.948ZM2.99999 269.942L2.99999 267.939L3.99999 267.939L3.99999 269.942L2.99999 269.942ZM2.99999 265.937L2.99999 263.934L3.99999 263.934L3.99999 265.937L2.99999 265.937ZM2.99999 261.931L2.99999 259.929L3.99999 259.929L3.99999 261.931L2.99999 261.931ZM2.99999 257.926L2.99999 255.923L3.99999 255.923L3.99999 257.926L2.99999 257.926ZM2.99999 253.921L2.99999 251.918L3.99999 251.918L3.99999 253.921L2.99999 253.921ZM2.99999 249.915L2.99999 247.913L3.99999 247.913L3.99999 249.915L2.99999 249.915ZM2.99999 245.91L2.99999 243.907L3.99999 243.907L3.99999 245.91L2.99999 245.91ZM2.99999 241.905L2.99999 239.902L3.99999 239.902L3.99999 241.905L2.99999 241.905ZM2.99999 237.899L2.99999 235.896L3.99999 235.896L3.99999 237.899L2.99999 237.899ZM2.99999 233.894L2.99999 231.891L3.99999 231.891L3.99999 233.894L2.99999 233.894ZM2.99999 229.888L2.99999 227.886L3.99999 227.886L3.99999 229.888L2.99999 229.888ZM2.99999 225.883L2.99999 223.88L3.99999 223.88L3.99999 225.883L2.99999 225.883ZM2.99999 221.878L2.99999 219.875L3.99999 219.875L3.99999 221.878L2.99999 221.878ZM2.99999 217.872L2.99999 215.87L3.99999 215.87L3.99999 217.872L2.99999 217.872ZM2.99999 213.867L2.99999 211.864L3.99999 211.864L3.99999 213.867L2.99999 213.867ZM2.99999 209.862L2.99999 207.859L3.99999 207.859L3.99999 209.862L2.99999 209.862ZM2.99999 205.856L2.99999 203.854L3.99999 203.854L3.99999 205.856L2.99999 205.856ZM2.99999 201.851L2.99999 199.848L3.99999 199.848L3.99999 201.851L2.99999 201.851ZM2.99999 197.845L2.99999 195.843L3.99999 195.843L3.99999 197.845L2.99999 197.845ZM2.99999 193.84L2.99999 191.837L3.99999 191.837L3.99999 193.84L2.99999 193.84ZM2.99999 189.835L2.99999 187.832L3.99999 187.832L3.99999 189.835L2.99999 189.835ZM2.99999 185.829L2.99999 183.827L3.99999 183.827L3.99999 185.829L2.99999 185.829ZM2.99999 181.824L2.99999 179.821L3.99999 179.821L3.99999 181.824L2.99999 181.824ZM2.99999 177.819L2.99999 175.816L3.99999 175.816L3.99999 177.819L2.99999 177.819ZM2.99999 173.813L2.99999 171.811L3.99999 171.811L3.99999 173.813L2.99999 173.813ZM2.99999 169.808L2.99999 167.805L3.99999 167.805L3.99999 169.808L2.99999 169.808ZM2.99999 165.802L2.99999 163.8L3.99999 163.8L3.99999 165.802L2.99999 165.802ZM2.99999 161.797L2.99999 159.794L3.99999 159.794L3.99999 161.797L2.99999 161.797ZM2.99999 157.792L2.99999 155.789L3.99999 155.789L3.99999 157.792L2.99999 157.792ZM2.99999 153.786L2.99999 151.784L3.99999 151.784L3.99999 153.786L2.99999 153.786ZM2.99999 149.781L2.99999 147.778L3.99999 147.778L3.99999 149.781L2.99999 149.781ZM2.99999 145.776L2.99999 143.773L3.99999 143.773L3.99999 145.776L2.99999 145.776ZM2.99999 141.77L2.99999 139.768L3.99999 139.768L3.99999 141.77L2.99999 141.77ZM2.99999 137.765L2.99999 135.762L3.99999 135.762L3.99999 137.765L2.99999 137.765ZM2.99999 133.76L2.99999 131.757L3.99999 131.757L3.99999 133.76L2.99999 133.76ZM2.99999 129.754L2.99999 127.751L3.99999 127.751L3.99999 129.754L2.99999 129.754ZM2.99999 125.749L2.99999 123.746L3.99999 123.746L3.99999 125.749L2.99999 125.749ZM2.99999 121.743L2.99999 119.741L3.99999 119.741L3.99999 121.743L2.99999 121.743ZM2.99999 117.738L2.99999 115.735L3.99999 115.735L3.99999 117.738L2.99999 117.738ZM2.99999 113.733L2.99999 111.73L3.99999 111.73L3.99999 113.733L2.99999 113.733ZM2.99999 109.727L2.99999 107.725L3.99999 107.725L3.99999 109.727L2.99999 109.727ZM2.99999 105.722L2.99999 103.719L3.99999 103.719L3.99999 105.722L2.99999 105.722ZM2.99999 101.717L2.99999 99.7139L3.99999 99.7139L3.99999 101.717L2.99999 101.717ZM2.99999 97.7112L2.99999 95.7085L3.99999 95.7085L3.99999 97.7112L2.99999 97.7112ZM2.99999 93.7058L2.99999 91.7031L3.99999 91.7031L3.99999 93.7058L2.99999 93.7058ZM2.99999 89.7004L2.99999 87.6978L3.99999 87.6978L3.99999 89.7004L2.99999 89.7004ZM2.99999 85.6951L2.99999 83.6924L3.99999 83.6924L3.99999 85.6951L2.99999 85.6951ZM2.99999 81.6897L2.99999 79.687L3.99999 79.687L3.99999 81.6897L2.99999 81.6897ZM2.99999 77.6843L2.99999 75.6816L3.99999 75.6816L3.99999 77.6843L2.99999 77.6843ZM2.99999 73.679L2.99999 71.6763L3.99999 71.6763L3.99999 73.679L2.99999 73.679ZM2.99999 69.6736L2.99999 67.6709L3.99999 67.6709L3.99999 69.6736L2.99999 69.6736ZM2.99999 65.6682L2.99999 63.6655L3.99999 63.6655L3.99999 65.6682L2.99999 65.6682ZM2.99999 61.6628L2.99999 59.6602L3.99999 59.6602L3.99999 61.6628L2.99999 61.6628ZM2.99999 57.6575L2.99999 55.6548L3.99999 55.6548L3.99999 57.6575L2.99999 57.6575ZM2.99999 53.6521L2.99999 51.6494L3.99999 51.6494L3.99999 53.6521L2.99999 53.6521ZM2.99999 49.6467L2.99999 47.644L3.99999 47.644L3.99999 49.6467L2.99999 49.6467ZM2.99999 45.6414L2.99999 43.6387L3.99999 43.6387L3.99999 45.6414L2.99999 45.6414ZM2.99999 41.636L2.99999 39.6333L3.99999 39.6333L3.99999 41.636L2.99999 41.636ZM2.99999 37.6306L2.99999 35.6279L3.99999 35.6279L3.99999 37.6306L2.99999 37.6306ZM2.99999 33.6252L2.99999 31.6226L3.99999 31.6226L3.99999 33.6252L2.99999 33.6252ZM2.99999 29.6199L2.99999 27.6172L3.99999 27.6172L3.99999 29.6199L2.99999 29.6199ZM2.99999 25.6145L2.99999 23.6118L3.99999 23.6118L3.99999 25.6145L2.99999 25.6145ZM2.99999 21.6091L2.99999 19.6064L3.99999 19.6064L3.99999 21.6091L2.99999 21.6091ZM2.99999 17.6038L2.99999 15.6011L3.99999 15.6011L3.99999 17.6038L2.99999 17.6038ZM2.99999 13.5984L2.99999 11.5957L3.99999 11.5957L3.99999 13.5984L2.99999 13.5984ZM2.99999 9.59302L2.99999 7.59033L3.99999 7.59033L3.99999 9.59302L2.99999 9.59302ZM2.99999 5.58765L2.99999 3.58496L3.99999 3.58496L3.99999 5.58765L2.99999 5.58765ZM2.99999 1.58228L2.99999 0.581177L3.99999 0.581177L3.99999 1.58228L2.99999 1.58228Z" fill="#FDBA2F"/>
</svg>
